<svg width="20" height="16" viewBox="0 0 20 16" fill="none" xmlns="http://www.w3.org/2000/svg">
<path d="M3.12109 0.623047C3.51161 0.232527 4.14463 0.232537 4.53516 0.623047L5.13086 1.21875L6.62598 2.71289H6.625L17.2637 13.3506C17.654 13.741 17.6539 14.3741 17.2637 14.7646C16.8732 15.1551 16.2401 15.1551 15.8496 14.7646L15.1777 14.0928C13.6555 14.9782 11.888 15.4883 10 15.4883C5.18893 15.4883 1.14627 12.1975 0 7.74414C0.552456 5.59768 1.77847 3.72231 3.43848 2.35449L3.12109 2.03711C2.73067 1.64667 2.73083 1.01359 3.12109 0.623047ZM4.86133 3.77734C3.57887 4.78465 2.59828 6.15896 2.08203 7.74414C3.16832 11.0794 6.30524 13.4883 10 13.4883C11.3304 13.4883 12.5873 13.1738 13.7031 12.6182L12.1797 11.0947C11.5525 11.504 10.8049 11.7441 10 11.7441C7.7909 11.7441 6.00007 9.95322 6 7.74414C6 6.93944 6.23856 6.19084 6.64746 5.56348L4.86133 3.77734ZM10 0C14.8111 0 18.8538 3.29072 20 7.74414C19.6487 9.10892 19.0235 10.3631 18.1895 11.4482L16.7617 10.0205C17.2568 9.3328 17.65 8.56684 17.918 7.74414C16.8317 4.40876 13.6948 2 10 2C9.60086 2 9.20845 2.02963 8.82422 2.08398L7.14258 0.402344C8.05016 0.141459 9.00852 0 10 0ZM8.12695 7.04199C8.0449 7.26034 8 7.49692 8 7.74414C8.00007 8.84865 8.89547 9.74414 10 9.74414C10.2471 9.74414 10.483 9.69819 10.7012 9.61621L8.12695 7.04199Z" fill="#B7B7B7"/>
</svg>
