<svg width="17" height="20" viewBox="0 0 17 20" fill="none" xmlns="http://www.w3.org/2000/svg">
<path d="M13.6969 10.3055C13.6875 8.70703 14.4117 7.50234 15.8742 6.61406C15.0562 5.44219 13.8188 4.79766 12.1875 4.67344C10.643 4.55156 8.95312 5.57344 8.33437 5.57344C7.68047 5.57344 6.18516 4.71563 5.00859 4.71563C2.58047 4.75313 0 6.65156 0 10.5141C0 11.6555 0.208594 12.8344 0.625781 14.0484C1.18359 15.6469 3.19453 19.5633 5.29219 19.5C6.38906 19.4742 7.16484 18.7219 8.59219 18.7219C9.97734 18.7219 10.6945 19.5 11.918 19.5C14.0344 19.4695 15.8531 15.9094 16.3828 14.3063C13.5445 12.968 13.6969 10.3875 13.6969 10.3055ZM11.2336 3.15703C12.4219 1.74609 12.3141 0.461719 12.2789 0C11.2289 0.0609375 10.0148 0.714844 9.32344 1.51875C8.56172 2.38125 8.11406 3.44766 8.21016 4.65C9.34453 4.73672 10.3805 4.15313 11.2336 3.15703Z" fill="#313131"/>
</svg>
